<?xml version="1.0" encoding="UTF-8"?>
<svg id="Layer_2" data-name="Layer 2" xmlns="http://www.w3.org/2000/svg" viewBox="0 0 237.6 89.21">
  <defs>
    <style>
      .cls-1 {
        fill: #091e27;
      }
    </style>
  </defs>
  <g id="Layer_1-2" data-name="Layer 1">
    <g>
      <polygon class="cls-1" points="90.13 66.18 93.46 66.18 91.73 62.2 90.13 66.18"/>
      <polygon class="cls-1" points="162.43 41.13 166.91 41.13 164.67 29.26 162.43 41.13"/>
      <path class="cls-1" d="m83.28,66.15c-.35-.14-.91-.2-1.67-.2h-1.43v3.48h1.51c.84,0,1.41-.07,1.71-.2s.54-.34.72-.62c.18-.28.27-.59.27-.91s-.1-.64-.29-.92c-.19-.28-.46-.48-.82-.62Z"/>
      <path class="cls-1" d="m152.24,61.19c-1.23,0-2.23.39-3.02,1.18-.79.79-1.18,1.79-1.18,3.01s.4,2.17,1.19,2.95c.79.79,1.78,1.18,2.97,1.18s2.19-.4,2.99-1.2c.8-.8,1.2-1.8,1.2-2.99s-.4-2.14-1.2-2.93c-.8-.79-1.78-1.19-2.94-1.19Z"/>
      <path class="cls-1" d="m104.38,61.69c-.37-.18-.72-.3-1.05-.35-.33-.06-.87-.09-1.6-.09h-1.92v8.16h1.96c.77,0,1.36-.05,1.79-.16.42-.11.78-.24,1.06-.41.28-.16.54-.37.78-.61.76-.79,1.13-1.78,1.13-2.98s-.39-2.14-1.16-2.88c-.29-.28-.61-.5-.98-.68Z"/>
      <path class="cls-1" d="m82.94,64.07c.34-.32.52-.73.52-1.24,0-1.05-.65-1.58-1.96-1.58h-1.32v3.3h1.02c.82,0,1.4-.16,1.74-.48Z"/>
      <polygon class="cls-1" points="47.17 52.27 44.24 60 45.71 60 47.17 52.27"/>
      <path class="cls-1" d="m46.38,70.96c-2.2,1.53-5.85,1.67-5.85,1.67,0,0,4.32,1.77,7.09-.58,2.77-2.35,1.71-5.58,1.71-5.58,0,0-.75,2.96-2.95,4.49Z"/>
      <polygon class="cls-1" points="37.25 52.27 38.7 60 40.18 60 37.25 52.27"/>
      <polygon class="cls-1" points="50.76 60 56.36 44.85 49.12 60 50.76 60"/>
      <polygon class="cls-1" points="28.05 44.85 33.66 60 35.29 60 28.05 44.85"/>
      <path class="cls-1" d="m226.1,0H11.5C5.15,0,0,5.15,0,11.5v66.22c0,6.35,5.15,11.5,11.5,11.5h214.6c6.35,0,11.5-5.15,11.5-11.5V11.5c0-6.35-5.15-11.5-11.5-11.5Zm-96.21,22.72h6.72l4.53,15.9,4.53-15.9h6.72v28.08h-5.43v-18.86l-3.53,12.76h-4.57l-3.53-12.72v18.81h-5.43v-28.08Zm-33.97,12.72h11.64v4.33h-11.64v-4.33ZM42.21,14.68s9.56,10.05,8.7,13.24c-.86,3.19-7.84,26.53-7.84,26.53l-.85-28.46-.85,28.46s-6.98-23.34-7.84-26.53c-.86-3.19,8.7-13.24,8.7-13.24Zm.1,59.84c-10.3,0-9.51-10.63-9.51-10.63h18.71s1.1,10.63-9.2,10.63Zm21.78-43.63c-.66,2-11.04,25.78-12.54,29.22v.71l-8.02.57,8.02.45v.83h-18.76v-2.68h.04c-1.68-3.84-11.83-27.12-12.49-29.1-.71-2.16,1.6-8.13,1.6-8.13l15.15,37.23h1.5c-1.69-4.14-11.87-29.09-13.23-32.45-1.49-3.66,3.48-9.07,3.48-9.07l12.68,41.52h1.41l12.68-41.52s4.97,5.41,3.48,9.07c-1.37,3.35-11.55,28.31-13.23,32.45h1.5l15.15-37.23s2.31,5.98,1.6,8.13Zm16.96-8.18l3.41,20.84,3.45-20.84h6.38l-6.04,28.08h-7.54l-6.08-28.08h6.42Zm4.5,46.61c-.28.44-.69.8-1.24,1.08-.54.28-1.23.42-2.04.42h-3.62v-10.97h2.8c.88,0,1.57.12,2.07.37.5.24.87.58,1.13,1,.26.43.39.92.39,1.48,0,1.08-.54,1.85-1.63,2.32.78.15,1.4.48,1.87.99.46.51.69,1.11.69,1.82,0,.56-.14,1.06-.42,1.5Zm9.97,1.49l-1.43-3.25h-4.57l-1.34,3.25h-1.58l4.6-11.03h1.08l4.8,11.03h-1.57Zm12.18-3.38c-.28.67-.67,1.26-1.18,1.77-.52.52-1.13.92-1.82,1.19-.4.16-.77.27-1.11.33-.34.05-.98.08-1.93.08h-3.39v-10.95h3.61c1.46,0,2.61.22,3.46.67.85.45,1.52,1.11,2.02,1.97.5.87.75,1.82.75,2.84,0,.73-.14,1.43-.41,2.1Zm12.28,3.38h-1.54v-8.53l-3.29,4.24h-.28l-3.33-4.24v8.53h-1.53v-10.97h1.45l3.56,4.5,3.54-4.5h1.43v10.97Zm3.85,0h-1.53v-10.97h1.53v10.97Zm-2.74-20.02h-5.22c-3.65,0-5.47-1.63-5.47-4.9v-3.62h6.16v2.78c0,.74.39,1.1,1.16,1.1h1.47c.78,0,1.16-.37,1.16-1.1v-5.08c0-.38-.09-.65-.26-.82-.17-.16-.47-.24-.91-.24h-3.79c-3.39,0-5.09-1.65-5.09-4.95v-6.4c0-3.24,1.81-4.86,5.43-4.86h5.26c3.62,0,5.43,1.62,5.43,4.86v3.67h-6.16v-2.78c0-.74-.39-1.1-1.16-1.1h-1.47c-.78,0-1.16.37-1.16,1.1v4.95c0,.38.09.66.26.82.17.16.47.24.91.24h3.71c1.84,0,3.16.41,3.97,1.21.8.81,1.21,2.01,1.21,3.6v6.62c0,3.27-1.81,4.9-5.43,4.9Zm15.08,20.02h-1.32l-7.16-8.45v8.45h-1.44v-10.97h1.24l7.22,8.52v-8.52h1.46v10.97Zm6.59,0h-1.54v-9.59h-3.67v-1.4h8.94v1.4h-3.73v9.59Zm13.53-1.46c-1.11,1.06-2.51,1.59-4.2,1.59s-2.96-.53-4.03-1.59c-1.07-1.06-1.61-2.39-1.61-3.98s.54-2.99,1.62-4.07c1.08-1.07,2.45-1.61,4.11-1.61s3.03.54,4.13,1.61c1.1,1.07,1.65,2.42,1.65,4.04s-.56,2.96-1.67,4.02Zm13.51,1.46h-1.32l-7.16-8.45v8.45h-1.44v-10.97h1.24l7.22,8.52v-8.52h1.46v10.97Zm-1.04-20.02l-.95-5.08h-6.25l-.95,5.08h-6.08l6.21-28.08h7.85l6.38,28.08h-6.21Zm16.92,19.2c-1.12.63-2.42.94-3.89.94-1.2,0-2.21-.25-3.04-.74-.83-.49-1.49-1.17-1.98-2.03-.49-.86-.73-1.8-.73-2.8,0-1.6.56-2.94,1.67-4.03,1.11-1.09,2.48-1.63,4.11-1.63,1.12,0,2.37.3,3.75.9v1.69c-1.25-.73-2.48-1.1-3.67-1.1s-2.24.4-3.05,1.19c-.81.79-1.21,1.79-1.21,2.98s.4,2.19,1.2,2.97c.8.77,1.82,1.16,3.06,1.16s2.56-.41,3.8-1.22v1.73Zm-3.56-19.2c-3.65,0-5.47-1.63-5.47-4.9v-3.62h6.16v2.78c0,.74.39,1.1,1.16,1.1h1.47c.78,0,1.16-.37,1.16-1.1v-5.08c0-.38-.09-.65-.26-.82-.17-.16-.47-.24-.91-.24h-3.79c-3.39,0-5.09-1.65-5.09-4.95v-6.4c0-3.24,1.81-4.86,5.43-4.86h5.26c3.62,0,5.43,1.62,5.43,4.86v3.67h-6.16v-2.78c0-.74-.39-1.1-1.16-1.1h-1.47c-.78,0-1.16.37-1.16,1.1v4.95c0,.38.09.66.26.82.17.16.47.24.91.24h3.71c1.84,0,3.16.41,3.97,1.21.8.81,1.21,2.01,1.21,3.6v6.62c0,3.27-1.81,4.9-5.43,4.9h-5.22Zm11.8,20.02h-6.35v-10.97h1.53v9.54h4.82v1.43Zm10.33-4.74c0,.84-.06,1.48-.18,1.91-.12.43-.27.79-.44,1.07-.18.29-.39.54-.65.77-.85.75-1.96,1.12-3.33,1.12s-2.51-.37-3.36-1.11c-.26-.23-.47-.49-.65-.77-.18-.29-.32-.63-.44-1.05-.11-.41-.17-1.06-.17-1.95v-6.21h1.54v6.23c0,1.03.11,1.75.34,2.15.23.4.58.73,1.05.97.47.24,1.02.37,1.66.37.91,0,1.65-.24,2.22-.73.3-.26.52-.57.65-.93.13-.36.2-.97.2-1.83v-6.23h1.54v6.23Zm9.03,3.25c-.28.44-.69.8-1.24,1.08-.54.28-1.23.42-2.04.42h-3.62v-10.97h2.8c.88,0,1.57.12,2.07.37.5.24.87.58,1.13,1,.26.43.39.92.39,1.48,0,1.08-.54,1.85-1.63,2.32.78.15,1.4.48,1.87.99.46.51.69,1.11.69,1.82,0,.56-.14,1.06-.42,1.5Zm.53-18.53h-6.08v-11.57h-5.52v11.57h-6.08v-28.08h6.08v11.88h5.52v-11.88h6.08v28.08Z"/>
      <path class="cls-1" d="m210.68,64.07c.34-.32.52-.73.52-1.24,0-1.05-.65-1.58-1.96-1.58h-1.32v3.3h1.02c.82,0,1.4-.16,1.74-.48Z"/>
      <path class="cls-1" d="m211.02,66.15c-.35-.14-.91-.2-1.67-.2h-1.43v3.48h1.51c.84,0,1.41-.07,1.71-.2s.54-.34.72-.62c.18-.28.27-.59.27-.91s-.1-.64-.29-.92c-.19-.28-.46-.48-.82-.62Z"/>
    </g>
  </g>
</svg>